<?xml version="1.0"?>
<svg xmlns="http://www.w3.org/2000/svg" height="512" viewBox="0 0 64 64" width="512"><g><g id="gamepad-game_controller-video_game_controller-controller-monitor" data-name="gamepad-game controller-video game controller-controller-monitor"><path d="m52 20.05v-15.05a3.009 3.009 0 0 0 -3-3h-34a3.009 3.009 0 0 0 -3 3v15.05a11.011 11.011 0 0 0 -10 10.95v20a11 11 0 1 0 22 0v-3h16v3a11 11 0 1 0 22 0v-20a11.011 11.011 0 0 0 -10-10.95zm-38-15.05a1 1 0 0 1 1-1h34a1 1 0 0 1 1 1v24a1 1 0 0 1 -1 1h-34a1 1 0 0 1 -1-1zm46 46a9 9 0 0 1 -18 0v-4a1 1 0 0 0 -1-1h-18a1 1 0 0 0 -1 1v4a9 9 0 0 1 -18 0v-20a9.016 9.016 0 0 1 8-8.94v6.94a3.009 3.009 0 0 0 3 3h34a3.009 3.009 0 0 0 3-3v-6.94a9.016 9.016 0 0 1 8 8.94z" data-original="#000000" class="active-path" data-old_color="#000000" style="fill:#ff416c"/><path d="m17 28h30a1 1 0 0 0 1-1v-20a1 1 0 0 0 -1-1h-30a1 1 0 0 0 -1 1v20a1 1 0 0 0 1 1zm1-20h28v18h-28z" data-original="#000000" class="active-path" data-old_color="#000000" style="fill:#FF4B2B"/><path d="m19 48h-3v-3a1 1 0 0 0 -1-1h-4a1 1 0 0 0 -1 1v3h-3a1 1 0 0 0 -1 1v4a1 1 0 0 0 1 1h3v3a1 1 0 0 0 1 1h4a1 1 0 0 0 1-1v-3h3a1 1 0 0 0 1-1v-4a1 1 0 0 0 -1-1zm-1 4h-3a1 1 0 0 0 -1 1v3h-2v-3a1 1 0 0 0 -1-1h-3v-2h3a1 1 0 0 0 1-1v-3h2v3a1 1 0 0 0 1 1h3z" data-original="#000000" class="active-path" data-old_color="#000000" style="fill:#FF4B2B"/><path d="m51 44a7 7 0 1 0 7 7 7.008 7.008 0 0 0 -7-7zm0 12a5 5 0 1 1 5-5 5.006 5.006 0 0 1 -5 5z" data-original="#000000" class="active-path" data-old_color="#000000" style="fill:#FF4B2B"/><path d="m51 48a3 3 0 1 0 3 3 3 3 0 0 0 -3-3zm0 4a1 1 0 1 1 1-1 1 1 0 0 1 -1 1z" data-original="#000000" class="active-path" data-old_color="#000000" style="fill:#FF4B2B"/><path d="m50 40h2v2h-2z" data-original="#000000" class="active-path" data-old_color="#000000" style="fill:#FF4B2B"/><path d="m50 34h2v2h-2z" data-original="#000000" class="active-path" data-old_color="#000000" style="fill:#FF4B2B"/><path d="m47 37h2v2h-2z" data-original="#000000" class="active-path" data-old_color="#000000" style="fill:#FF4B2B"/><path d="m53 37h2v2h-2z" data-original="#000000" class="active-path" data-old_color="#000000" style="fill:#FF4B2B"/><path d="m12 40h2v2h-2z" data-original="#000000" class="active-path" data-old_color="#000000" style="fill:#FF4B2B"/><path d="m12 34h2v2h-2z" data-original="#000000" class="active-path" data-old_color="#000000" style="fill:#FF4B2B"/><path d="m9 37h2v2h-2z" data-original="#000000" class="active-path" data-old_color="#000000" style="fill:#FF4B2B"/><path d="m15 37h2v2h-2z" data-original="#000000" class="active-path" data-old_color="#000000" style="fill:#FF4B2B"/><path d="m30 40h4a1 1 0 0 0 1-1v-4a1 1 0 0 0 -1-1h-4a1 1 0 0 0 -1 1v4a1 1 0 0 0 1 1zm1-4h2v2h-2z" data-original="#000000" class="active-path" data-old_color="#000000" style="fill:#FF4B2B"/><path d="m26 40a1 1 0 0 0 1-1v-4a1 1 0 0 0 -1-1h-4a1 1 0 0 0 -1 1v4a1 1 0 0 0 1 1zm-3-4h2v2h-2z" data-original="#000000" class="active-path" data-old_color="#000000" style="fill:#FF4B2B"/><path d="m42 34h-4a1 1 0 0 0 -1 1v4a1 1 0 0 0 1 1h4a1 1 0 0 0 1-1v-4a1 1 0 0 0 -1-1zm-1 4h-2v-2h2z" data-original="#000000" class="active-path" data-old_color="#000000" style="fill:#FF4B2B"/><path d="m22 42h16v2h-16z" data-original="#000000" class="active-path" data-old_color="#000000" style="fill:#FF4B2B"/><path d="m40 42h2v2h-2z" data-original="#000000" class="active-path" data-old_color="#000000" style="fill:#FF4B2B"/><path d="m43 10h-4v2h3v3h2v-4a1 1 0 0 0 -1-1z" data-original="#000000" class="active-path" data-old_color="#000000" style="fill:#FF4B2B"/><path d="m42 17h2v2h-2z" data-original="#000000" class="active-path" data-old_color="#000000" style="fill:#FF4B2B"/></g></g> </svg>
