<?xml version="1.0"?>
<svg xmlns="http://www.w3.org/2000/svg" height="512px" viewBox="0 0 128 128" width="512px"><g><g id="Layer_1" data-name="Layer 1"><path d="m123.25 40.167a7.75 7.75 0 1 0 -9.5 7.543v24.54h-7.885v-8.25a1.75 1.75 0 0 0 -1.75-1.75h-10.25v-55.75a1.75 1.75 0 0 0 -1.75-1.75h-85.615a1.75 1.75 0 0 0 -1.75 1.75v115a1.75 1.75 0 0 0 1.75 1.75h85.615a1.75 1.75 0 0 0 1.75-1.75v-35.75h10.25a1.75 1.75 0 0 0 1.75-1.75v-8.25h9.635a1.75 1.75 0 0 0 1.75-1.75v-26.29a7.758 7.758 0 0 0 6-7.543zm-32.885 23.833v18.167h-25.038v-36.334h25.038zm0-55.75v34.083h-82.115v-34.083zm-28.538 37.583v36.334h-25.038v-36.334zm-53.577 0h25.039v36.334h-25.039zm23.115 73.917v-20.5h35.885v20.5zm39.385 0v-22.25a1.75 1.75 0 0 0 -1.75-1.75h-39.385a1.75 1.75 0 0 0 -1.75 1.75v22.25h-19.615v-34.083h82.115v34.083zm31.615-37.5h-8.5v-16.5h8.5zm13.135-37.833a4.25 4.25 0 1 1 4.25-4.25 4.255 4.255 0 0 1 -4.25 4.25z" data-original="#000000" class="active-path" data-old_color="#000000" fill="#FF4647"/><path d="m44.833 72.098h3.523l7.099-14.821v-2.35h-12.397v2.85h8.773z" data-original="#000000" class="active-path" data-old_color="#000000" fill="#FF4647"/><path d="m14.519 57.777h8.773l-6.999 14.321h3.524l7.099-14.821v-2.35h-12.397z" data-original="#000000" class="active-path" data-old_color="#000000" fill="#FF4647"/><path d="m73.371 72.098h3.524l7.098-14.821v-2.35h-12.397v2.85h8.773z" data-original="#000000" class="active-path" data-old_color="#000000" fill="#FF4647"/><path d="m69 22.442h-39.385a1.75 1.75 0 0 0 -1.75 1.75v12a1.75 1.75 0 0 0 1.75 1.75h39.385a1.75 1.75 0 0 0 1.75-1.75v-12a1.75 1.75 0 0 0 -1.75-1.75zm-1.75 12h-35.885v-8.5h35.885z" data-original="#000000" class="active-path" data-old_color="#000000" fill="#FF4647"/><path d="m20.558 17.1h57.5a1.75 1.75 0 0 0 0-3.5h-57.5a1.75 1.75 0 0 0 0 3.5z" data-original="#000000" class="active-path" data-old_color="#000000" fill="#FF4647"/></g></g> </svg>
